<svg xmlns="http://www.w3.org/2000/svg" viewBox="0 0 448 512" fill="currentColor">
  <path d="M224.1 141c-63.6 0-114.9 51.3-114.9 114.9S160.5 370.8 224.1 370.8 339 319.5 339 255.9 287.7 141 224.1 141zm0 186.6c-39.6 0-71.7-32.1-71.7-71.7s32.1-71.7 71.7-71.7 71.7 32.1 71.7 71.7-32.1 71.7-71.7 71.7zm146.4-194.3c0 14.9-12 26.9-26.9 26.9s-26.9-12-26.9-26.9 12-26.9 26.9-26.9 26.9 12 26.9 26.9zm76.1 27.2c-1.7-35.7-9.9-67.3-36.2-93.5-26.3-26.3-57.8-34.5-93.5-36.2-37-2.1-148-2.1-185 0-35.7 1.7-67.3 9.9-93.5 36.2-26.3 26.3-34.5 57.8-36.2 93.5-2.1 37-2.1 148 0 185 1.7 35.7 9.9 67.3 36.2 93.5 26.3 26.3 57.8 34.5 93.5 36.2 37 2.1 148 2.1 185 0 35.7-1.7 67.3-9.9 93.5-36.2 26.3-26.3 34.5-57.8 36.2-93.5 2.1-37 2.1-148 0-185zm-48.5 224c-7.8 19.6-23 35.8-42.6 42.6-29.5 11.7-99.5 9-132.4 9s-102.9 2.6-132.4-9c-19.6-7.8-35.8-23-42.6-42.6-11.7-29.5-9-99.5-9-132.4s-2.6-102.9 9-132.4c7.8-19.6 23-35.8 42.6-42.6 29.5-11.7 99.5-9 132.4-9s102.9-2.6 132.4 9c19.6 7.8 35.8 23 42.6 42.6 11.7 29.5 9 99.5 9 132.4s2.7 102.9-9 132.4z"/>
</svg>
