<svg xmlns="http://www.w3.org/2000/svg" viewBox="0 0 16 16" fill="#ffffff" id="Youtube-Logo-Light--Streamline-Phosphor" height="16" width="16">
  <desc>
    Youtube Logo Light Streamline Icon: https://streamlinehq.com
  </desc>
  <path d="m10.51618125 7.6437 -3.42046875 -2.2803125c-0.2737875 -0.18266875 -0.64265625 -0.00045 -0.66395625 0.32799375 -0.0006125 0.009425 -0.0009125 0.0188625 -0.00089375 0.02830625v4.560625c-0.00049375 0.3291375 0.3555 0.535375 0.6407875 0.371225 0.00818125 -0.00470625 0.01620625 -0.0096875 0.0240625 -0.014925l3.42046875 -2.2803125c0.25495625 -0.16911875 0.25495625 -0.54348125 0 -0.7126Zm-3.23020625 1.8377875v-2.96298125L9.50785625 8Zm8.15211875 -5.61455625c-0.1255 -0.4875875 -0.47754375 -0.885225 -0.94633125 -1.06889375 -2.43138125 -0.94134375 -6.331425 -0.926375 -6.4931875 -0.926375s-4.06180625 -0.01496875 -6.49604375 0.926375c-0.4676875 0.1844125 -0.8185625 0.58193125 -0.943475 1.06889375C0.37734375 4.57169375 0.16 5.86220625 0.16 8s0.21734375 3.42830625 0.39905625 4.13306875c0.1255 0.4875875 0.47754375 0.885225 0.94633125 1.06889375 2.43138125 0.94134375 6.3307125 0.926375 6.4931875 0.926375h0.05059375c0.49240625 0 4.13306875 -0.03135 6.44544375 -0.926375 0.4687875 -0.18366875 0.82083125 -0.58130625 0.94633125 -1.06889375 0.1817125 -0.7033375 0.39905625 -1.9902875 0.39905625 -4.13306875s-0.21663125 -3.42830625 -0.40190625 -4.13306875Zm-0.8280375 8.05235625c-0.05566875 0.22219375 -0.21475625 0.40408125 -0.42755625 0.48884375 -2.2803125 0.87863125 -6.14259375 0.86509375 -6.183925 0.86509375s-3.898625 0.01425 -6.1817875 -0.86723125c-0.2128 -0.0847625 -0.3718875 -0.26665 -0.42755625 -0.48884375 -0.1717375 -0.654875 -0.3741125 -1.86629375 -0.3741125 -3.91715s0.202375 -3.262275 0.371975 -3.9192875c0.05566875 -0.22219375 0.21475625 -0.40408125 0.42755625 -0.48884375 2.19765625 -0.8465625 5.86539375 -0.86509375 6.166825 -0.86509375h0.0171c0.03848125 0 3.89861875 -0.01425 6.1817875 0.86723125 0.2128 0.0847625 0.3718875 0.26665 0.42755625 0.48884375 0.1696 0.654875 0.371975 1.86629375 0.371975 3.9192875s-0.2002375 3.26013125 -0.3698375 3.91715Z" stroke-width="0.0625"></path>
</svg>