<svg xmlns="http://www.w3.org/2000/svg" xmlns:xlink="http://www.w3.org/1999/xlink" width="117" zoomAndPan="magnify" viewBox="0 0 87.75 30.000001" height="40" preserveAspectRatio="xMidYMid meet" version="1.2"><defs/><g id="00009903af"><g style="fill:#ffffff;fill-opacity:1;"><g transform="translate(28.279367, 20.860428)"><path style="stroke:none" d="M 0.453125 3.828125 C 0.0976562 3.828125 -0.191406 3.773438 -0.421875 3.671875 C -0.648438 3.578125 -0.765625 3.46875 -0.765625 3.34375 C -0.765625 3.164062 -0.671875 2.972656 -0.484375 2.765625 C -0.296875 2.554688 -0.078125 2.453125 0.171875 2.453125 C 0.335938 2.453125 0.550781 2.488281 0.8125 2.5625 C 1.070312 2.632812 1.347656 2.707031 1.640625 2.78125 C 1.941406 2.863281 2.222656 2.929688 2.484375 2.984375 C 2.941406 2.660156 3.359375 2.21875 3.734375 1.65625 C 4.109375 1.101562 4.4375 0.535156 4.71875 -0.046875 L 1.578125 -7.59375 C 1.347656 -8.15625 1.140625 -8.578125 0.953125 -8.859375 C 0.773438 -9.148438 0.613281 -9.347656 0.46875 -9.453125 C 0.320312 -9.566406 0.1875 -9.644531 0.0625 -9.6875 L 0.0625 -9.90625 L 2.515625 -9.90625 L 2.515625 -9.6875 C 2.328125 -9.644531 2.207031 -9.566406 2.15625 -9.453125 C 2.101562 -9.347656 2.117188 -9.148438 2.203125 -8.859375 C 2.296875 -8.578125 2.457031 -8.15625 2.6875 -7.59375 L 5.296875 -1.359375 L 7.984375 -7.59375 C 8.242188 -8.207031 8.367188 -8.691406 8.359375 -9.046875 C 8.359375 -9.410156 8.1875 -9.625 7.84375 -9.6875 L 7.84375 -9.90625 L 9.96875 -9.90625 L 9.96875 -9.6875 C 9.8125 -9.644531 9.644531 -9.566406 9.46875 -9.453125 C 9.300781 -9.347656 9.117188 -9.148438 8.921875 -8.859375 C 8.722656 -8.578125 8.503906 -8.15625 8.265625 -7.59375 L 5.125 -0.390625 C 4.65625 0.691406 4.179688 1.519531 3.703125 2.09375 C 3.222656 2.675781 2.769531 3.085938 2.34375 3.328125 C 1.914062 3.578125 1.535156 3.722656 1.203125 3.765625 C 0.878906 3.804688 0.628906 3.828125 0.453125 3.828125 Z M 0.453125 3.828125 "/></g></g><g style="fill:#ffffff;fill-opacity:1;"><g transform="translate(36.498161, 20.860428)"><path style="stroke:none" d="M 0.734375 0 L 0.734375 -0.21875 C 0.921875 -0.269531 1.070312 -0.359375 1.1875 -0.484375 C 1.300781 -0.609375 1.382812 -0.828125 1.4375 -1.140625 C 1.5 -1.453125 1.53125 -1.910156 1.53125 -2.515625 L 1.53125 -7.078125 C 1.53125 -7.617188 1.503906 -8.019531 1.453125 -8.28125 C 1.410156 -8.539062 1.328125 -8.726562 1.203125 -8.84375 C 1.085938 -8.957031 0.929688 -9.054688 0.734375 -9.140625 L 0.734375 -9.3125 L 2.421875 -10.046875 L 2.5625 -9.921875 L 2.5625 -8.203125 C 3.164062 -8.703125 3.84375 -9.132812 4.59375 -9.5 C 5.34375 -9.863281 6.101562 -10.046875 6.875 -10.046875 C 7.914062 -10.046875 8.710938 -9.726562 9.265625 -9.09375 C 9.828125 -8.46875 10.109375 -7.570312 10.109375 -6.40625 L 10.109375 -2.515625 C 10.109375 -1.910156 10.132812 -1.453125 10.1875 -1.140625 C 10.238281 -0.828125 10.320312 -0.609375 10.4375 -0.484375 C 10.5625 -0.359375 10.710938 -0.269531 10.890625 -0.21875 L 10.890625 0 L 8.28125 0 L 8.28125 -0.21875 C 8.46875 -0.269531 8.617188 -0.359375 8.734375 -0.484375 C 8.859375 -0.609375 8.945312 -0.828125 9 -1.140625 C 9.050781 -1.453125 9.078125 -1.910156 9.078125 -2.515625 L 9.078125 -5.984375 C 9.078125 -8.347656 8.066406 -9.53125 6.046875 -9.53125 C 5.421875 -9.53125 4.800781 -9.359375 4.1875 -9.015625 C 3.570312 -8.679688 3.03125 -8.3125 2.5625 -7.90625 L 2.5625 -2.515625 C 2.5625 -1.910156 2.585938 -1.453125 2.640625 -1.140625 C 2.691406 -0.828125 2.773438 -0.609375 2.890625 -0.484375 C 3.015625 -0.359375 3.164062 -0.269531 3.34375 -0.21875 L 3.34375 0 Z M 0.734375 0 "/></g></g><g style="fill:#ffffff;fill-opacity:1;"><g transform="translate(46.202325, 20.860428)"><path style="stroke:none" d="M 3.78125 0.203125 C 3.21875 0.203125 2.75 0.0078125 2.375 -0.375 C 2.007812 -0.769531 1.828125 -1.460938 1.828125 -2.453125 L 1.828125 -9.671875 L 0.5625 -9.671875 L 0.5625 -9.90625 L 2.640625 -12.140625 L 2.859375 -12.140625 L 2.859375 -9.90625 L 5.828125 -9.90625 L 5.703125 -9.671875 L 2.859375 -9.671875 L 2.859375 -2.5 C 2.859375 -1.757812 3 -1.242188 3.28125 -0.953125 C 3.570312 -0.660156 3.925781 -0.515625 4.34375 -0.515625 C 4.6875 -0.515625 5.03125 -0.601562 5.375 -0.78125 C 5.726562 -0.957031 6.070312 -1.234375 6.40625 -1.609375 L 6.5625 -1.453125 C 6.363281 -1.210938 6.113281 -0.960938 5.8125 -0.703125 C 5.519531 -0.441406 5.203125 -0.222656 4.859375 -0.046875 C 4.515625 0.117188 4.15625 0.203125 3.78125 0.203125 Z M 3.78125 0.203125 "/></g></g><g style="fill:#ffffff;fill-opacity:1;"><g transform="translate(50.994868, 20.860428)"><path style="stroke:none" d="M 5.90625 0.203125 C 5.300781 0.203125 4.691406 0.0976562 4.078125 -0.109375 C 3.472656 -0.316406 2.925781 -0.628906 2.4375 -1.046875 C 1.945312 -1.472656 1.550781 -2.003906 1.25 -2.640625 C 0.957031 -3.285156 0.8125 -4.050781 0.8125 -4.9375 C 0.8125 -5.9375 1.046875 -6.816406 1.515625 -7.578125 C 1.984375 -8.347656 2.609375 -8.953125 3.390625 -9.390625 C 4.171875 -9.828125 5.007812 -10.046875 5.90625 -10.046875 C 6.519531 -10.046875 7.125 -9.941406 7.71875 -9.734375 C 8.320312 -9.535156 8.867188 -9.226562 9.359375 -8.8125 C 9.859375 -8.394531 10.25 -7.859375 10.53125 -7.203125 C 10.820312 -6.554688 10.96875 -5.789062 10.96875 -4.90625 C 10.96875 -4.0625 10.816406 -3.316406 10.515625 -2.671875 C 10.210938 -2.035156 9.8125 -1.503906 9.3125 -1.078125 C 8.8125 -0.660156 8.265625 -0.34375 7.671875 -0.125 C 7.078125 0.09375 6.488281 0.203125 5.90625 0.203125 Z M 1.84375 -5.6875 C 1.84375 -5.007812 1.953125 -4.34375 2.171875 -3.6875 C 2.398438 -3.039062 2.71875 -2.453125 3.125 -1.921875 C 3.539062 -1.390625 4.023438 -0.960938 4.578125 -0.640625 C 5.128906 -0.328125 5.738281 -0.171875 6.40625 -0.171875 C 7.164062 -0.171875 7.8125 -0.347656 8.34375 -0.703125 C 8.882812 -1.054688 9.296875 -1.53125 9.578125 -2.125 C 9.859375 -2.71875 10 -3.382812 10 -4.125 C 10 -4.769531 9.882812 -5.421875 9.65625 -6.078125 C 9.4375 -6.742188 9.125 -7.347656 8.71875 -7.890625 C 8.320312 -8.441406 7.84375 -8.878906 7.28125 -9.203125 C 6.726562 -9.535156 6.125 -9.703125 5.46875 -9.703125 C 4.6875 -9.703125 4.023438 -9.523438 3.484375 -9.171875 C 2.941406 -8.828125 2.53125 -8.347656 2.25 -7.734375 C 1.976562 -7.128906 1.84375 -6.445312 1.84375 -5.6875 Z M 1.84375 -5.6875 "/></g></g><g style="fill:#ffffff;fill-opacity:1;"><g transform="translate(61.114935, 20.860428)"><path style="stroke:none" d="M 0.734375 0 L 0.734375 -0.21875 C 0.921875 -0.269531 1.070312 -0.359375 1.1875 -0.484375 C 1.300781 -0.609375 1.382812 -0.828125 1.4375 -1.140625 C 1.5 -1.453125 1.53125 -1.910156 1.53125 -2.515625 L 1.53125 -7.078125 C 1.53125 -7.617188 1.503906 -8.019531 1.453125 -8.28125 C 1.410156 -8.539062 1.328125 -8.726562 1.203125 -8.84375 C 1.085938 -8.957031 0.929688 -9.054688 0.734375 -9.140625 L 0.734375 -9.3125 L 2.421875 -10.046875 L 2.5625 -9.921875 L 2.5625 -7.40625 C 2.71875 -7.832031 2.925781 -8.21875 3.1875 -8.5625 C 3.457031 -8.914062 3.71875 -9.191406 3.96875 -9.390625 C 4.21875 -9.578125 4.507812 -9.734375 4.84375 -9.859375 C 5.175781 -9.984375 5.578125 -10.046875 6.046875 -10.046875 C 6.503906 -10.046875 6.835938 -9.992188 7.046875 -9.890625 C 7.265625 -9.796875 7.375 -9.6875 7.375 -9.5625 C 7.375 -9.351562 7.273438 -9.144531 7.078125 -8.9375 C 6.890625 -8.726562 6.664062 -8.625 6.40625 -8.625 C 6.164062 -8.625 5.84375 -8.671875 5.4375 -8.765625 C 5.03125 -8.867188 4.566406 -8.984375 4.046875 -9.109375 C 3.816406 -8.984375 3.59375 -8.765625 3.375 -8.453125 C 3.15625 -8.140625 2.96875 -7.804688 2.8125 -7.453125 C 2.664062 -7.097656 2.582031 -6.765625 2.5625 -6.453125 L 2.5625 -2.515625 C 2.5625 -1.910156 2.585938 -1.453125 2.640625 -1.140625 C 2.691406 -0.828125 2.773438 -0.609375 2.890625 -0.484375 C 3.015625 -0.359375 3.164062 -0.269531 3.34375 -0.21875 L 3.34375 0 Z M 0.734375 0 "/></g></g><g style="fill:#ffffff;fill-opacity:1;"><g transform="translate(67.016554, 20.860428)"><path style="stroke:none" d="M 0.453125 3.828125 C 0.0976562 3.828125 -0.191406 3.773438 -0.421875 3.671875 C -0.648438 3.578125 -0.765625 3.46875 -0.765625 3.34375 C -0.765625 3.164062 -0.671875 2.972656 -0.484375 2.765625 C -0.296875 2.554688 -0.078125 2.453125 0.171875 2.453125 C 0.335938 2.453125 0.550781 2.488281 0.8125 2.5625 C 1.070312 2.632812 1.347656 2.707031 1.640625 2.78125 C 1.941406 2.863281 2.222656 2.929688 2.484375 2.984375 C 2.941406 2.660156 3.359375 2.21875 3.734375 1.65625 C 4.109375 1.101562 4.4375 0.535156 4.71875 -0.046875 L 1.578125 -7.59375 C 1.347656 -8.15625 1.140625 -8.578125 0.953125 -8.859375 C 0.773438 -9.148438 0.613281 -9.347656 0.46875 -9.453125 C 0.320312 -9.566406 0.1875 -9.644531 0.0625 -9.6875 L 0.0625 -9.90625 L 2.515625 -9.90625 L 2.515625 -9.6875 C 2.328125 -9.644531 2.207031 -9.566406 2.15625 -9.453125 C 2.101562 -9.347656 2.117188 -9.148438 2.203125 -8.859375 C 2.296875 -8.578125 2.457031 -8.15625 2.6875 -7.59375 L 5.296875 -1.359375 L 7.984375 -7.59375 C 8.242188 -8.207031 8.367188 -8.691406 8.359375 -9.046875 C 8.359375 -9.410156 8.1875 -9.625 7.84375 -9.6875 L 7.84375 -9.90625 L 9.96875 -9.90625 L 9.96875 -9.6875 C 9.8125 -9.644531 9.644531 -9.566406 9.46875 -9.453125 C 9.300781 -9.347656 9.117188 -9.148438 8.921875 -8.859375 C 8.722656 -8.578125 8.503906 -8.15625 8.265625 -7.59375 L 5.125 -0.390625 C 4.65625 0.691406 4.179688 1.519531 3.703125 2.09375 C 3.222656 2.675781 2.769531 3.085938 2.34375 3.328125 C 1.914062 3.578125 1.535156 3.722656 1.203125 3.765625 C 0.878906 3.804688 0.628906 3.828125 0.453125 3.828125 Z M 0.453125 3.828125 "/></g></g><g style="fill:#ffffff;fill-opacity:1;"><g transform="translate(11.395253, 21.099023)"><path style="stroke:none" d="M 12.207031 -8.429688 L 14.765625 -11.640625 L 15.0625 -11.402344 L 14.695312 -11.304688 C 14.222656 -13.058594 13.984375 -14.542969 13.976562 -15.765625 C 13.96875 -17.007812 14.128906 -18.011719 14.457031 -18.78125 C 14.792969 -19.566406 15.214844 -20.132812 15.722656 -20.480469 C 16.25 -20.839844 16.773438 -20.992188 17.300781 -20.9375 C 17.917969 -20.886719 18.4375 -20.632812 18.863281 -20.179688 C 19.289062 -19.726562 19.503906 -19.089844 19.503906 -18.273438 C 19.503906 -17.496094 19.230469 -16.546875 18.679688 -15.421875 C 18.140625 -14.324219 17.242188 -13.042969 15.976562 -11.582031 L 15.691406 -11.828125 L 16.050781 -11.941406 C 16.707031 -9.824219 17.023438 -7.90625 17 -6.191406 C 16.976562 -4.464844 16.703125 -2.957031 16.175781 -1.664062 C 15.648438 -0.367188 14.949219 0.707031 14.082031 1.5625 C 13.214844 2.414062 12.265625 3.039062 11.238281 3.4375 C 10.203125 3.84375 9.1875 4.003906 8.1875 3.925781 C 7.160156 3.84375 6.292969 3.496094 5.578125 2.878906 C 4.875 2.273438 4.363281 1.496094 4.039062 0.546875 L 4.398438 0.425781 L 4.640625 0.71875 C 3.890625 1.339844 3.203125 1.71875 2.582031 1.851562 C 1.929688 1.992188 1.386719 1.945312 0.957031 1.714844 C 0.503906 1.476562 0.222656 1.121094 0.105469 0.652344 C -0.0117188 0.191406 0.0703125 -0.265625 0.351562 -0.71875 C 0.421875 -0.828125 0.496094 -0.90625 0.578125 -0.957031 C 0.675781 -1.015625 0.777344 -1.035156 0.882812 -1.011719 C 0.992188 -0.988281 1.082031 -0.933594 1.148438 -0.835938 C 1.253906 -0.691406 1.269531 -0.542969 1.199219 -0.390625 C 1.148438 -0.277344 1.058594 -0.195312 0.925781 -0.140625 L 0.785156 -0.492188 L 1.105469 -0.289062 C 0.953125 -0.0507812 0.902344 0.1875 0.953125 0.421875 C 1.003906 0.644531 1.136719 0.816406 1.355469 0.933594 C 1.597656 1.0625 1.941406 1.078125 2.386719 0.976562 C 2.871094 0.871094 3.445312 0.550781 4.121094 0.015625 L 4.355469 0.3125 L 3.992188 0.429688 C 3.722656 -0.425781 3.628906 -1.351562 3.707031 -2.34375 C 3.785156 -3.335938 4.074219 -4.320312 4.566406 -5.300781 C 5.0625 -6.28125 5.777344 -7.167969 6.714844 -7.964844 C 7.433594 -8.589844 8.167969 -8.988281 8.925781 -9.167969 C 9.675781 -9.34375 10.386719 -9.363281 11.054688 -9.226562 C 11.722656 -9.085938 12.285156 -8.84375 12.734375 -8.492188 L 12.503906 -8.191406 Z M 12.800781 -7.957031 L 12.566406 -7.664062 L 12.269531 -7.894531 C 11.914062 -8.171875 11.457031 -8.367188 10.898438 -8.484375 C 10.339844 -8.601562 9.742188 -8.582031 9.097656 -8.429688 C 8.464844 -8.28125 7.832031 -7.933594 7.203125 -7.386719 C 6.34375 -6.65625 5.691406 -5.847656 5.242188 -4.957031 C 4.792969 -4.066406 4.535156 -3.175781 4.464844 -2.28125 C 4.390625 -1.386719 4.476562 -0.5625 4.714844 0.199219 L 4.792969 0.449219 L 4.589844 0.609375 C 3.824219 1.214844 3.148438 1.585938 2.550781 1.714844 C 1.921875 1.855469 1.402344 1.820312 1 1.601562 C 0.574219 1.375 0.3125 1.039062 0.214844 0.585938 C 0.117188 0.148438 0.199219 -0.28125 0.464844 -0.695312 L 0.53125 -0.800781 L 0.644531 -0.84375 C 0.589844 -0.824219 0.542969 -0.777344 0.511719 -0.703125 C 0.460938 -0.589844 0.46875 -0.488281 0.535156 -0.398438 C 0.582031 -0.328125 0.648438 -0.285156 0.734375 -0.269531 C 0.820312 -0.253906 0.898438 -0.265625 0.964844 -0.304688 C 0.988281 -0.320312 1.003906 -0.332031 1.015625 -0.34375 C 1.011719 -0.339844 1.003906 -0.328125 0.996094 -0.316406 C 0.828125 -0.046875 0.773438 0.214844 0.839844 0.46875 C 0.902344 0.71875 1.058594 0.910156 1.3125 1.046875 C 1.582031 1.191406 1.953125 1.210938 2.421875 1.109375 C 2.925781 1.003906 3.503906 0.679688 4.15625 0.136719 L 4.582031 -0.214844 L 4.757812 0.304688 C 5.035156 1.121094 5.472656 1.789062 6.074219 2.304688 C 6.660156 2.8125 7.386719 3.101562 8.246094 3.167969 C 9.128906 3.238281 10.035156 3.09375 10.960938 2.734375 C 11.894531 2.371094 12.757812 1.800781 13.550781 1.019531 C 14.34375 0.242188 14.984375 -0.75 15.472656 -1.949219 C 15.964844 -3.15625 16.222656 -4.570312 16.242188 -6.199219 C 16.265625 -7.835938 15.960938 -9.675781 15.328125 -11.71875 L 15.265625 -11.917969 L 15.402344 -12.078125 C 16.625 -13.488281 17.488281 -14.714844 18 -15.757812 C 18.496094 -16.773438 18.746094 -17.613281 18.746094 -18.273438 C 18.746094 -18.890625 18.601562 -19.351562 18.308594 -19.660156 C 18.015625 -19.972656 17.65625 -20.148438 17.222656 -20.183594 C 16.878906 -20.21875 16.523438 -20.109375 16.152344 -19.855469 C 15.761719 -19.589844 15.429688 -19.132812 15.152344 -18.480469 C 14.867188 -17.8125 14.726562 -16.910156 14.734375 -15.769531 C 14.742188 -14.613281 14.972656 -13.191406 15.425781 -11.5 L 15.476562 -11.316406 Z M 4.847656 0.238281 C 5.125 1.054688 5.578125 1.726562 6.203125 2.257812 C 6.820312 2.777344 7.507812 3.050781 8.273438 3.078125 C 8.84375 3.105469 9.460938 3.003906 10.136719 2.773438 C 10.816406 2.539062 11.492188 2.171875 12.164062 1.671875 C 12.835938 1.171875 13.4375 0.535156 13.976562 -0.238281 C 14.515625 -1.011719 14.933594 -1.925781 15.238281 -2.976562 C 15.539062 -4.03125 15.664062 -5.234375 15.613281 -6.585938 C 15.5625 -7.941406 15.273438 -9.449219 14.746094 -11.109375 L 15.105469 -11.222656 L 15.40625 -10.992188 C 15.210938 -10.734375 14.953125 -10.410156 14.636719 -10.019531 L 13.707031 -8.863281 C 13.398438 -8.480469 13.132812 -8.15625 12.90625 -7.882812 L 12.613281 -8.125 L 12.851562 -8.421875 C 13.546875 -7.859375 13.984375 -7.230469 14.171875 -6.527344 C 14.355469 -5.835938 14.34375 -5.171875 14.144531 -4.53125 C 13.945312 -3.902344 13.613281 -3.367188 13.15625 -2.933594 C 12.6875 -2.492188 12.148438 -2.226562 11.546875 -2.140625 L 11.535156 -2.136719 L 11.523438 -2.136719 C 11.371094 -2.125 11.253906 -2.132812 11.171875 -2.164062 C 11.109375 -2.183594 11.054688 -2.21875 11.007812 -2.265625 C 10.929688 -2.347656 10.890625 -2.445312 10.898438 -2.5625 C 10.902344 -2.675781 10.953125 -2.777344 11.050781 -2.863281 C 11.144531 -2.945312 11.246094 -2.996094 11.355469 -3.007812 C 11.488281 -3.023438 11.609375 -2.988281 11.71875 -2.90625 L 11.492188 -2.605469 L 11.4375 -2.980469 C 11.882812 -3.042969 12.269531 -3.238281 12.609375 -3.570312 C 12.957031 -3.914062 13.207031 -4.332031 13.351562 -4.832031 C 13.496094 -5.324219 13.496094 -5.835938 13.351562 -6.363281 C 13.207031 -6.878906 12.863281 -7.34375 12.320312 -7.757812 L 12.546875 -8.058594 L 12.84375 -7.824219 C 11.609375 -6.273438 10.296875 -4.753906 8.90625 -3.265625 C 7.511719 -1.769531 6.117188 -0.464844 4.726562 0.65625 L 4.488281 0.359375 Z M 4.128906 0.480469 L 4.046875 0.230469 L 4.253906 0.0625 C 5.613281 -1.03125 6.980469 -2.3125 8.355469 -3.78125 C 9.730469 -5.257812 11.03125 -6.761719 12.25 -8.292969 L 12.480469 -8.582031 L 12.777344 -8.359375 C 13.457031 -7.84375 13.894531 -7.246094 14.082031 -6.566406 C 14.265625 -5.898438 14.261719 -5.25 14.078125 -4.617188 C 13.894531 -3.996094 13.582031 -3.464844 13.136719 -3.027344 C 12.683594 -2.582031 12.152344 -2.316406 11.546875 -2.230469 L 11.390625 -2.207031 L 11.265625 -2.300781 C 11.316406 -2.261719 11.375 -2.246094 11.445312 -2.253906 C 11.492188 -2.261719 11.527344 -2.277344 11.554688 -2.296875 C 11.617188 -2.355469 11.648438 -2.429688 11.65625 -2.527344 C 11.660156 -2.628906 11.625 -2.71875 11.554688 -2.792969 C 11.515625 -2.832031 11.472656 -2.859375 11.425781 -2.875 C 11.410156 -2.882812 11.394531 -2.886719 11.378906 -2.886719 L 11.382812 -2.886719 C 11.402344 -2.886719 11.429688 -2.890625 11.464844 -2.890625 L 11.492188 -2.515625 L 11.4375 -2.890625 C 11.882812 -2.953125 12.28125 -3.152344 12.636719 -3.484375 C 13 -3.828125 13.261719 -4.253906 13.421875 -4.761719 C 13.578125 -5.257812 13.585938 -5.785156 13.4375 -6.332031 C 13.296875 -6.875 12.941406 -7.375 12.375 -7.832031 L 12.078125 -8.074219 L 12.324219 -8.367188 C 12.546875 -8.636719 12.8125 -8.960938 13.117188 -9.339844 L 14.050781 -10.496094 C 14.359375 -10.882812 14.613281 -11.203125 14.804688 -11.453125 L 15.246094 -12.03125 L 15.46875 -11.339844 C 16.015625 -9.613281 16.316406 -8.039062 16.371094 -6.613281 C 16.425781 -5.179688 16.289062 -3.898438 15.964844 -2.769531 C 15.640625 -1.636719 15.183594 -0.648438 14.597656 0.195312 C 14.015625 1.035156 13.351562 1.730469 12.617188 2.277344 C 11.882812 2.828125 11.136719 3.230469 10.382812 3.488281 C 9.617188 3.753906 8.90625 3.867188 8.246094 3.835938 C 7.308594 3.800781 6.460938 3.46875 5.714844 2.835938 C 4.980469 2.214844 4.453125 1.429688 4.128906 0.480469 Z M 12.226562 -7.824219 C 11.882812 -8.089844 11.441406 -8.273438 10.902344 -8.382812 C 10.355469 -8.492188 9.773438 -8.472656 9.15625 -8.328125 C 8.539062 -8.1875 7.925781 -7.855469 7.316406 -7.34375 C 6.457031 -6.613281 5.808594 -5.808594 5.367188 -4.925781 C 4.925781 -4.042969 4.664062 -3.15625 4.585938 -2.269531 C 4.507812 -1.382812 4.582031 -0.582031 4.804688 0.132812 L 4.445312 0.246094 L 4.203125 -0.0429688 C 5.523438 -1.140625 6.871094 -2.417969 8.242188 -3.875 C 9.621094 -5.332031 10.925781 -6.828125 12.164062 -8.363281 L 12.457031 -8.125 Z M 12.6875 -8.425781 L 12.996094 -8.191406 L 12.753906 -7.886719 C 11.503906 -6.339844 10.183594 -4.828125 8.792969 -3.355469 C 7.398438 -1.875 6.03125 -0.578125 4.6875 0.539062 L 4.253906 0.898438 L 4.082031 0.359375 C 3.828125 -0.449219 3.746094 -1.347656 3.832031 -2.335938 C 3.917969 -3.316406 4.203125 -4.292969 4.6875 -5.265625 C 5.175781 -6.238281 5.890625 -7.125 6.828125 -7.921875 C 7.53125 -8.515625 8.25 -8.894531 8.984375 -9.066406 C 9.710938 -9.238281 10.398438 -9.257812 11.050781 -9.125 C 11.707031 -8.996094 12.253906 -8.761719 12.6875 -8.425781 Z M 15.363281 -12.238281 C 16.710938 -13.761719 17.632812 -15.121094 18.125 -16.316406 C 18.597656 -17.46875 18.730469 -18.378906 18.527344 -19.046875 C 18.433594 -19.347656 18.28125 -19.582031 18.070312 -19.75 C 17.851562 -19.921875 17.558594 -20.027344 17.195312 -20.074219 C 16.707031 -20.140625 16.292969 -19.90625 15.953125 -19.371094 C 15.566406 -18.757812 15.351562 -17.835938 15.316406 -16.609375 C 15.28125 -15.355469 15.511719 -13.847656 16.011719 -12.089844 L 15.644531 -11.988281 Z M 15.929688 -11.734375 L 15.46875 -11.214844 L 15.28125 -11.882812 C 14.761719 -13.714844 14.519531 -15.300781 14.558594 -16.632812 C 14.597656 -17.996094 14.851562 -19.042969 15.3125 -19.777344 C 15.828125 -20.585938 16.484375 -20.9375 17.285156 -20.824219 C 17.789062 -20.765625 18.207031 -20.605469 18.535156 -20.347656 C 18.875 -20.082031 19.113281 -19.722656 19.25 -19.269531 C 19.507812 -18.425781 19.367188 -17.347656 18.824219 -16.027344 C 18.300781 -14.753906 17.335938 -13.324219 15.929688 -11.734375 Z M 15.929688 -11.734375 "/></g></g><g style="fill:#ffffff;fill-opacity:1;"><g transform="translate(11.395253, 21.099023)"><path style="stroke:none" d="M 12.5 -8.203125 L 15.0625 -11.40625 C 14.601562 -13.125 14.367188 -14.578125 14.359375 -15.765625 C 14.347656 -16.960938 14.492188 -17.921875 14.796875 -18.640625 C 15.109375 -19.359375 15.488281 -19.867188 15.9375 -20.171875 C 16.382812 -20.484375 16.828125 -20.613281 17.265625 -20.5625 C 17.785156 -20.519531 18.222656 -20.304688 18.578125 -19.921875 C 18.941406 -19.546875 19.125 -19 19.125 -18.28125 C 19.125 -17.5625 18.863281 -16.664062 18.34375 -15.59375 C 17.820312 -14.519531 16.9375 -13.265625 15.6875 -11.828125 C 16.332031 -9.753906 16.644531 -7.878906 16.625 -6.203125 C 16.601562 -4.523438 16.335938 -3.0625 15.828125 -1.8125 C 15.316406 -0.5625 14.644531 0.46875 13.8125 1.28125 C 12.988281 2.101562 12.082031 2.703125 11.09375 3.078125 C 10.113281 3.460938 9.15625 3.617188 8.21875 3.546875 C 7.269531 3.472656 6.46875 3.15625 5.8125 2.59375 C 5.164062 2.03125 4.695312 1.304688 4.40625 0.421875 C 3.695312 1.003906 3.0625 1.351562 2.5 1.46875 C 1.9375 1.59375 1.476562 1.5625 1.125 1.375 C 0.78125 1.1875 0.5625 0.910156 0.46875 0.546875 C 0.382812 0.191406 0.453125 -0.160156 0.671875 -0.515625 C 0.742188 -0.640625 0.796875 -0.671875 0.828125 -0.609375 C 0.867188 -0.554688 0.851562 -0.519531 0.78125 -0.5 C 0.570312 -0.164062 0.503906 0.164062 0.578125 0.5 C 0.660156 0.84375 0.859375 1.097656 1.171875 1.265625 C 1.492188 1.441406 1.925781 1.46875 2.46875 1.34375 C 3.007812 1.226562 3.640625 0.882812 4.359375 0.3125 C 4.097656 -0.488281 4.003906 -1.363281 4.078125 -2.3125 C 4.160156 -3.257812 4.4375 -4.195312 4.90625 -5.125 C 5.375 -6.0625 6.054688 -6.910156 6.953125 -7.671875 C 7.628906 -8.253906 8.316406 -8.628906 9.015625 -8.796875 C 9.710938 -8.960938 10.367188 -8.984375 10.984375 -8.859375 C 11.597656 -8.734375 12.101562 -8.515625 12.5 -8.203125 Z M 4.484375 0.359375 C 4.785156 1.242188 5.273438 1.972656 5.953125 2.546875 C 6.640625 3.117188 7.410156 3.421875 8.265625 3.453125 C 8.878906 3.484375 9.546875 3.375 10.265625 3.125 C 10.984375 2.882812 11.691406 2.5 12.390625 1.96875 C 13.097656 1.445312 13.734375 0.785156 14.296875 -0.015625 C 14.859375 -0.828125 15.296875 -1.78125 15.609375 -2.875 C 15.921875 -3.96875 16.050781 -5.207031 16 -6.59375 C 15.945312 -7.988281 15.648438 -9.53125 15.109375 -11.21875 C 14.910156 -10.96875 14.65625 -10.644531 14.34375 -10.25 C 14.03125 -9.863281 13.71875 -9.476562 13.40625 -9.09375 C 13.101562 -8.71875 12.84375 -8.394531 12.625 -8.125 C 13.25 -7.613281 13.644531 -7.046875 13.8125 -6.421875 C 13.976562 -5.804688 13.96875 -5.210938 13.78125 -4.640625 C 13.601562 -4.078125 13.304688 -3.597656 12.890625 -3.203125 C 12.484375 -2.816406 12.019531 -2.585938 11.5 -2.515625 C 11.300781 -2.503906 11.234375 -2.523438 11.296875 -2.578125 C 11.367188 -2.640625 11.4375 -2.648438 11.5 -2.609375 C 12.019531 -2.679688 12.476562 -2.910156 12.875 -3.296875 C 13.269531 -3.691406 13.550781 -4.164062 13.71875 -4.71875 C 13.882812 -5.28125 13.882812 -5.859375 13.71875 -6.453125 C 13.550781 -7.054688 13.160156 -7.59375 12.546875 -8.0625 C 11.316406 -6.519531 10.007812 -5.003906 8.625 -3.515625 C 7.25 -2.035156 5.867188 -0.742188 4.484375 0.359375 Z M 12.46875 -8.125 C 12.070312 -8.425781 11.570312 -8.632812 10.96875 -8.75 C 10.375 -8.875 9.738281 -8.859375 9.0625 -8.703125 C 8.394531 -8.546875 7.734375 -8.191406 7.078125 -7.640625 C 6.171875 -6.867188 5.484375 -6.019531 5.015625 -5.09375 C 4.554688 -4.164062 4.285156 -3.234375 4.203125 -2.296875 C 4.128906 -1.359375 4.210938 -0.507812 4.453125 0.25 C 5.773438 -0.863281 7.128906 -2.148438 8.515625 -3.609375 C 9.898438 -5.078125 11.21875 -6.582031 12.46875 -8.125 Z M 15.65625 -11.984375 C 17.03125 -13.546875 17.972656 -14.941406 18.484375 -16.171875 C 18.992188 -17.410156 19.128906 -18.40625 18.890625 -19.15625 C 18.660156 -19.914062 18.113281 -20.347656 17.25 -20.453125 C 16.601562 -20.546875 16.066406 -20.253906 15.640625 -19.578125 C 15.210938 -18.898438 14.976562 -17.914062 14.9375 -16.625 C 14.90625 -15.332031 15.144531 -13.785156 15.65625 -11.984375 Z M 15.65625 -11.984375 "/></g></g><g style="fill:#ffffff;fill-opacity:1;"><g transform="translate(37.23208, 25.781754)"><path style="stroke:none" d="M 3 0 L 2.84375 -1.984375 L 2.828125 -1.984375 L 2.140625 -0.015625 L 1.6875 -0.015625 L 1 -1.984375 L 0.984375 -1.984375 L 0.828125 0 L 0.0625 0 L 0.359375 -3.34375 L 1.171875 -3.34375 L 1.921875 -1.40625 L 2.65625 -3.34375 L 3.46875 -3.34375 L 3.765625 0 Z M 3 0 "/></g></g><g style="fill:#ffffff;fill-opacity:1;"><g transform="translate(41.454843, 25.781754)"><path style="stroke:none" d=""/></g></g><g style="fill:#ffffff;fill-opacity:1;"><g transform="translate(42.954571, 25.781754)"><path style="stroke:none" d=""/></g></g><g style="fill:#ffffff;fill-opacity:1;"><g transform="translate(44.454605, 25.781754)"><path style="stroke:none" d="M 2.15625 -3.34375 L 2.15625 -2.671875 L 1 -2.671875 L 1 -2 L 2.109375 -2 L 2.109375 -1.34375 L 1 -1.34375 L 1 -0.671875 L 2.15625 -0.671875 L 2.15625 0 L 0.25 0 L 0.25 -3.34375 Z M 2.15625 -3.34375 "/></g></g><g style="fill:#ffffff;fill-opacity:1;"><g transform="translate(47.196736, 25.781754)"><path style="stroke:none" d=""/></g></g><g style="fill:#ffffff;fill-opacity:1;"><g transform="translate(48.696464, 25.781754)"><path style="stroke:none" d=""/></g></g><g style="fill:#ffffff;fill-opacity:1;"><g transform="translate(50.196498, 25.781754)"><path style="stroke:none" d="M 0.25 -3.34375 L 1.203125 -3.34375 C 1.671875 -3.34375 2.066406 -3.179688 2.390625 -2.859375 C 2.722656 -2.546875 2.890625 -2.148438 2.890625 -1.671875 C 2.890625 -1.191406 2.722656 -0.789062 2.390625 -0.46875 C 2.066406 -0.15625 1.671875 0 1.203125 0 L 0.25 0 Z M 1 -0.6875 L 1.125 -0.6875 C 1.394531 -0.6875 1.617188 -0.78125 1.796875 -0.96875 C 1.972656 -1.15625 2.066406 -1.390625 2.078125 -1.671875 C 2.078125 -1.953125 1.988281 -2.1875 1.8125 -2.375 C 1.632812 -2.5625 1.40625 -2.65625 1.125 -2.65625 L 1 -2.65625 Z M 1 -0.6875 "/></g></g><g style="fill:#ffffff;fill-opacity:1;"><g transform="translate(53.578262, 25.781754)"><path style="stroke:none" d=""/></g></g><g style="fill:#ffffff;fill-opacity:1;"><g transform="translate(55.07799, 25.781754)"><path style="stroke:none" d=""/></g></g><g style="fill:#ffffff;fill-opacity:1;"><g transform="translate(56.578023, 25.781754)"><path style="stroke:none" d="M 1 -3.34375 L 1 0 L 0.25 0 L 0.25 -3.34375 Z M 1 -3.34375 "/></g></g><g style="fill:#ffffff;fill-opacity:1;"><g transform="translate(58.221526, 25.781754)"><path style="stroke:none" d=""/></g></g><g style="fill:#ffffff;fill-opacity:1;"><g transform="translate(59.721253, 25.781754)"><path style="stroke:none" d=""/></g></g><g style="fill:#ffffff;fill-opacity:1;"><g transform="translate(61.221287, 25.781754)"><path style="stroke:none" d="M 1.9375 -3.34375 L 3.28125 0 L 2.46875 0 L 2.21875 -0.671875 L 0.953125 -0.671875 L 0.703125 0 L -0.109375 0 L 1.234375 -3.34375 Z M 1.96875 -1.328125 L 1.59375 -2.3125 L 1.578125 -2.3125 L 1.203125 -1.328125 Z M 1.96875 -1.328125 "/></g></g></g></svg>